<svg width="1366" height="915" viewBox="0 0 1366 915" fill="none" xmlns="http://www.w3.org/2000/svg">
<rect width="1366" height="915" fill="white"/>
<path d="M468.426 142.31H517.293V171.097H431.121V18H468.426V142.31Z" fill="#F9F9F9"/>
<path d="M594.862 172.842C582.936 172.842 572.173 170.297 562.574 165.209C553.121 160.12 545.631 152.851 540.104 143.4C534.723 133.95 532.032 122.9 532.032 110.251C532.032 97.7472 534.796 86.7701 540.322 77.3197C545.849 67.7239 553.412 60.3816 563.011 55.2929C572.61 50.2042 583.372 47.6598 595.298 47.6598C607.224 47.6598 617.986 50.2042 627.585 55.2929C637.184 60.3816 644.747 67.7239 650.274 77.3197C655.8 86.7701 658.564 97.7472 658.564 110.251C658.564 122.755 655.728 133.804 650.055 143.4C644.529 152.851 636.893 160.12 627.149 165.209C617.55 170.297 606.788 172.842 594.862 172.842ZM594.862 140.565C601.988 140.565 608.024 137.948 612.969 132.714C618.059 127.48 620.604 119.992 620.604 110.251C620.604 100.51 618.132 93.022 613.187 87.7879C608.387 82.5538 602.424 79.9367 595.298 79.9367C588.026 79.9367 581.99 82.5538 577.191 87.7879C572.391 92.8766 569.992 100.364 569.992 110.251C569.992 119.992 572.319 127.48 576.973 132.714C581.772 137.948 587.735 140.565 594.862 140.565Z" fill="#F9F9F9"/>
<path d="M737.475 136.203L763.872 49.4045H803.577L760.382 171.097H714.351L671.155 49.4045H711.078L737.475 136.203Z" fill="#F9F9F9"/>
<path d="M938.393 108.288C938.393 111.777 938.175 115.412 937.739 119.192H853.312C853.893 126.753 856.293 132.568 860.511 136.639C864.874 140.565 870.182 142.528 876.436 142.528C885.744 142.528 892.216 138.602 895.852 130.751H935.557C933.521 138.748 929.812 145.944 924.431 152.342C919.195 158.739 912.578 163.755 904.579 167.39C896.58 171.024 887.635 172.842 877.745 172.842C865.819 172.842 855.202 170.297 845.894 165.209C836.586 160.12 829.314 152.851 824.079 143.4C818.843 133.95 816.225 122.9 816.225 110.251C816.225 97.6018 818.77 86.552 823.86 77.1016C829.096 67.6512 836.368 60.3816 845.676 55.2929C854.984 50.2042 865.674 47.6598 877.745 47.6598C889.526 47.6598 899.997 50.1315 909.16 55.0748C918.323 60.0181 925.449 67.0696 930.539 76.2293C935.775 85.3889 938.393 96.0752 938.393 108.288ZM900.216 98.4741C900.216 92.0769 898.034 86.9882 893.671 83.208C889.308 79.4279 883.854 77.5378 877.309 77.5378C871.055 77.5378 865.747 79.3552 861.383 82.99C857.166 86.6247 854.548 91.7861 853.53 98.4741H900.216Z" fill="#F9F9F9"/>
<path d="M410.733 316.961C410.733 301.84 414.006 288.392 420.55 276.615C427.095 264.693 436.185 255.46 447.82 248.918C459.601 242.23 472.908 238.886 487.743 238.886C505.923 238.886 521.485 243.684 534.429 253.28C547.373 262.875 556.026 275.961 560.389 292.535H519.376C516.322 286.138 511.958 281.267 506.286 277.923C500.76 274.579 494.433 272.907 487.307 272.907C475.817 272.907 466.509 276.906 459.382 284.902C452.256 292.899 448.693 303.585 448.693 316.961C448.693 330.337 452.256 341.023 459.382 349.02C466.509 357.016 475.817 361.015 487.307 361.015C494.433 361.015 500.76 359.343 506.286 355.999C511.958 352.655 516.322 347.784 519.376 341.387H560.389C556.026 357.961 547.373 371.047 534.429 380.642C521.485 390.093 505.923 394.818 487.743 394.818C472.908 394.818 459.601 391.547 447.82 385.004C436.185 378.316 427.095 369.084 420.55 357.307C414.006 345.53 410.733 332.082 410.733 316.961Z" fill="#F9F9F9"/>
<path d="M580.18 332.663C580.18 320.16 582.507 309.183 587.161 299.732C591.961 290.282 598.433 283.012 606.577 277.923C614.722 272.835 623.812 270.29 633.847 270.29C642.428 270.29 649.918 272.035 656.317 275.524C662.862 279.014 667.88 283.594 671.37 289.264V272.035H708.675V393.728H671.37V376.499C667.734 382.169 662.644 386.749 656.099 390.238C649.7 393.728 642.21 395.472 633.629 395.472C623.739 395.472 614.722 392.928 606.577 387.839C598.433 382.605 591.961 375.263 587.161 365.813C582.507 356.217 580.18 345.167 580.18 332.663ZM671.37 332.881C671.37 323.576 668.752 316.234 663.516 310.855C658.426 305.475 652.172 302.785 644.755 302.785C637.338 302.785 631.011 305.475 625.775 310.855C620.685 316.089 618.14 323.358 618.14 332.663C618.14 341.968 620.685 349.383 625.775 354.908C631.011 360.288 637.338 362.977 644.755 362.977C652.172 362.977 658.426 360.288 663.516 354.908C668.752 349.529 671.37 342.186 671.37 332.881Z" fill="#F9F9F9"/>
<path d="M777.332 292.317C781.695 285.629 787.149 280.395 793.693 276.615C800.238 272.689 807.51 270.727 815.509 270.727V310.2H805.256C795.948 310.2 788.967 312.236 784.313 316.307C779.659 320.232 777.332 327.211 777.332 337.243V393.728H740.027V272.035H777.332V292.317Z" fill="#F9F9F9"/>
<path d="M952.454 330.919C952.454 334.408 952.236 338.043 951.8 341.823H867.373C867.954 349.383 870.354 355.199 874.572 359.27C878.935 363.195 884.243 365.158 890.497 365.158C899.805 365.158 906.277 361.233 909.913 353.382H949.618C947.582 361.378 943.873 368.575 938.492 374.972C933.256 381.369 926.639 386.385 918.64 390.02C910.64 393.655 901.696 395.472 891.806 395.472C879.88 395.472 869.263 392.928 859.955 387.839C850.647 382.751 843.375 375.481 838.14 366.031C832.904 356.58 830.286 345.53 830.286 332.881C830.286 320.232 832.831 309.183 837.921 299.732C843.157 290.282 850.429 283.012 859.737 277.923C869.045 272.835 879.735 270.29 891.806 270.29C903.587 270.29 914.058 272.762 923.221 277.705C932.384 282.649 939.51 289.7 944.6 298.86C949.836 308.019 952.454 318.706 952.454 330.919ZM914.276 321.105C914.276 314.707 912.095 309.619 907.732 305.839C903.369 302.058 897.915 300.168 891.37 300.168C885.116 300.168 879.808 301.986 875.444 305.621C871.227 309.255 868.609 314.417 867.591 321.105H914.276Z" fill="#F9F9F9"/>
<path d="M332.244 463.261V616.358H294.939V463.261H332.244Z" fill="#F9F9F9"/>
<path d="M437.815 493.357C452.068 493.357 463.412 498.01 471.847 507.315C480.428 516.474 484.719 529.123 484.719 545.262V616.358H447.632V550.278C447.632 542.136 445.523 535.811 441.305 531.304C437.088 526.797 431.415 524.544 424.289 524.544C417.162 524.544 411.49 526.797 407.273 531.304C403.055 535.811 400.946 542.136 400.946 550.278V616.358H363.641V494.666H400.946V510.804C404.728 505.425 409.818 501.208 416.217 498.155C422.616 494.956 429.816 493.357 437.815 493.357Z" fill="#F9F9F9"/>
<path d="M564.527 618.103C553.91 618.103 544.456 616.286 536.166 612.651C527.876 609.016 521.332 604.073 516.532 597.821C511.733 591.424 509.042 584.299 508.46 576.448H545.329C545.765 580.665 547.729 584.081 551.219 586.698C554.71 589.315 559 590.624 564.09 590.624C568.744 590.624 572.308 589.752 574.78 588.007C577.398 586.117 578.707 583.718 578.707 580.81C578.707 577.321 576.889 574.776 573.253 573.177C569.617 571.432 563.727 569.542 555.582 567.507C546.856 565.471 539.584 563.363 533.766 561.182C527.949 558.856 522.931 555.294 518.714 550.496C514.496 545.553 512.387 538.937 512.387 530.65C512.387 523.671 514.278 517.347 518.059 511.676C521.986 505.861 527.658 501.281 535.075 497.937C542.638 494.593 551.583 492.921 561.909 492.921C577.18 492.921 589.178 496.701 597.905 504.262C606.777 511.822 611.867 521.854 613.176 534.357H578.707C578.125 530.141 576.234 526.797 573.035 524.325C569.981 521.854 565.908 520.618 560.818 520.618C556.455 520.618 553.11 521.49 550.783 523.235C548.456 524.834 547.292 527.088 547.292 529.996C547.292 533.485 549.11 536.102 552.746 537.847C556.528 539.592 562.345 541.336 570.199 543.081C579.216 545.407 586.561 547.734 592.233 550.06C597.905 552.241 602.85 555.875 607.067 560.964C611.431 565.907 613.685 572.595 613.83 581.028C613.83 588.152 611.794 594.55 607.722 600.22C603.795 605.745 598.05 610.106 590.487 613.305C583.07 616.504 574.416 618.103 564.527 618.103Z" fill="#F9F9F9"/>
<path d="M678.321 511.895C681.957 506.224 686.975 501.644 693.374 498.155C699.773 494.666 707.264 492.921 715.844 492.921C725.88 492.921 734.97 495.465 743.114 500.554C751.259 505.643 757.658 512.912 762.312 522.363C767.111 531.813 769.511 542.79 769.511 555.294C769.511 567.798 767.111 578.847 762.312 588.443C757.658 597.894 751.259 605.236 743.114 610.47C734.97 615.559 725.88 618.103 715.844 618.103C707.409 618.103 699.919 616.358 693.374 612.869C686.975 609.379 681.957 604.872 678.321 599.347V674.369H641.016V494.666H678.321V511.895ZM731.552 555.294C731.552 545.989 728.934 538.719 723.698 533.485C718.608 528.106 712.281 525.416 704.718 525.416C697.301 525.416 690.974 528.106 685.739 533.485C680.648 538.865 678.103 546.207 678.103 555.512C678.103 564.817 680.648 572.159 685.739 577.539C690.974 582.918 697.301 585.608 704.718 585.608C712.136 585.608 718.462 582.918 723.698 577.539C728.934 572.014 731.552 564.599 731.552 555.294Z" fill="#F9F9F9"/>
<path d="M812.207 482.017C805.662 482.017 800.281 480.127 796.063 476.346C791.991 472.421 789.955 467.623 789.955 461.953C789.955 456.137 791.991 451.339 796.063 447.559C800.281 443.633 805.662 441.67 812.207 441.67C818.606 441.67 823.842 443.633 827.914 447.559C832.132 451.339 834.241 456.137 834.241 461.953C834.241 467.623 832.132 472.421 827.914 476.346C823.842 480.127 818.606 482.017 812.207 482.017ZM830.75 494.666V616.358H793.445V494.666H830.75Z" fill="#F9F9F9"/>
<path d="M899.453 514.948C903.816 508.26 909.27 503.026 915.815 499.245C922.359 495.32 929.631 493.357 937.63 493.357V532.831H927.377C918.069 532.831 911.088 534.866 906.434 538.937C901.78 542.863 899.453 549.842 899.453 559.874V616.358H862.148V494.666H899.453V514.948Z" fill="#F9F9F9"/>
<path d="M1074.58 553.549C1074.58 557.039 1074.36 560.673 1073.92 564.454H989.494C990.076 572.014 992.475 577.83 996.693 581.9C1001.06 585.826 1006.36 587.789 1012.62 587.789C1021.93 587.789 1028.4 583.863 1032.03 576.012H1071.74C1069.7 584.009 1065.99 591.206 1060.61 597.603C1055.38 604 1048.76 609.016 1040.76 612.651C1032.76 616.286 1023.82 618.103 1013.93 618.103C1002 618.103 991.385 615.559 982.077 610.47C972.768 605.381 965.497 598.112 960.261 588.661C955.025 579.211 952.407 568.161 952.407 555.512C952.407 542.863 954.952 531.813 960.043 522.363C965.278 512.912 972.55 505.643 981.858 500.554C991.166 495.465 1001.86 492.921 1013.93 492.921C1025.71 492.921 1036.18 495.393 1045.34 500.336C1054.5 505.279 1061.63 512.331 1066.72 521.49C1071.96 530.65 1074.58 541.336 1074.58 553.549ZM1036.4 543.735C1036.4 537.338 1034.22 532.249 1029.85 528.469C1025.49 524.689 1020.04 522.799 1013.49 522.799C1007.24 522.799 1001.93 524.616 997.566 528.251C993.348 531.886 990.73 537.047 989.712 543.735H1036.4Z" fill="#F9F9F9"/>
<path d="M190.305 715.77V746.738H240.263V775.525H190.305V809.111H246.808V838.989H153V685.892H246.808V715.77H190.305Z" fill="#F9F9F9"/>
<path d="M430.718 715.988C445.843 715.988 457.842 720.568 466.714 729.727C475.731 738.887 480.24 751.609 480.24 767.892V838.989H443.153V772.908C443.153 765.057 441.044 759.024 436.826 754.807C432.754 750.445 427.082 748.265 419.81 748.265C412.538 748.265 406.793 750.445 402.575 754.807C398.503 759.024 396.467 765.057 396.467 772.908V838.989H359.38V772.908C359.38 765.057 357.271 759.024 353.054 754.807C348.981 750.445 343.309 748.265 336.037 748.265C328.766 748.265 323.021 750.445 318.803 754.807C314.731 759.024 312.695 765.057 312.695 772.908V838.989H275.39V717.296H312.695V732.562C316.476 727.474 321.421 723.475 327.529 720.568C333.638 717.514 340.546 715.988 348.254 715.988C357.417 715.988 365.561 717.95 372.688 721.876C379.96 725.802 385.632 731.399 389.704 738.669C393.922 731.981 399.667 726.529 406.939 722.312C414.211 718.096 422.137 715.988 430.718 715.988Z" fill="#F9F9F9"/>
<path d="M547.998 734.525C551.634 728.855 556.651 724.275 563.051 720.786C569.45 717.296 576.94 715.552 585.521 715.552C595.556 715.552 604.646 718.096 612.791 723.185C620.935 728.273 627.334 735.543 631.988 744.993C636.788 754.444 639.188 765.421 639.188 777.924C639.188 790.428 636.788 801.478 631.988 811.074C627.334 820.524 620.935 827.866 612.791 833.1C604.646 838.189 595.556 840.734 585.521 840.734C577.085 840.734 569.595 838.989 563.051 835.499C556.651 832.01 551.634 827.503 547.998 821.978V897H510.693V717.296H547.998V734.525ZM601.228 777.924C601.228 768.619 598.61 761.35 593.375 756.116C588.284 750.736 581.958 748.046 574.395 748.046C566.978 748.046 560.651 750.736 555.415 756.116C550.325 761.495 547.78 768.837 547.78 778.143C547.78 787.448 550.325 794.79 555.415 800.169C560.651 805.549 566.978 808.239 574.395 808.239C581.812 808.239 588.139 805.549 593.375 800.169C598.61 794.644 601.228 787.229 601.228 777.924Z" fill="#F9F9F9"/>
<path d="M718.534 840.734C706.608 840.734 695.845 838.189 686.247 833.1C676.793 828.012 669.303 820.742 663.776 811.292C658.395 801.841 655.705 790.792 655.705 778.143C655.705 765.639 658.468 754.662 663.994 745.211C669.521 735.616 677.084 728.273 686.683 723.185C696.282 718.096 707.044 715.552 718.97 715.552C730.896 715.552 741.659 718.096 751.257 723.185C760.856 728.273 768.419 735.616 773.946 745.211C779.473 754.662 782.236 765.639 782.236 778.143C782.236 790.646 779.4 801.696 773.728 811.292C768.201 820.742 760.565 828.012 750.821 833.1C741.222 838.189 730.46 840.734 718.534 840.734ZM718.534 808.457C725.66 808.457 731.696 805.84 736.641 800.605C741.731 795.371 744.276 787.884 744.276 778.143C744.276 768.401 741.804 760.914 736.859 755.68C732.06 750.445 726.097 747.828 718.97 747.828C711.698 747.828 705.663 750.445 700.863 755.68C696.064 760.768 693.664 768.256 693.664 778.143C693.664 787.884 695.991 795.371 700.645 800.605C705.444 805.84 711.407 808.457 718.534 808.457Z" fill="#F9F9F9"/>
<path d="M981.134 717.296L948.192 838.989H906.96L887.763 760.041L867.91 838.989H826.897L793.737 717.296H831.042L848.276 804.313L868.783 717.296H908.269L928.994 803.877L946.011 717.296H981.134Z" fill="#F9F9F9"/>
<path d="M1114.47 776.18C1114.47 779.669 1114.26 783.304 1113.82 787.084H1029.39C1029.97 794.644 1032.37 800.46 1036.59 804.531C1040.96 808.457 1046.26 810.419 1052.52 810.419C1061.83 810.419 1068.3 806.494 1071.93 798.643H1111.64C1109.6 806.639 1105.89 813.836 1100.51 820.233C1095.28 826.631 1088.66 831.647 1080.66 835.281C1072.66 838.916 1063.72 840.734 1053.83 840.734C1041.9 840.734 1031.28 838.189 1021.98 833.1C1012.67 828.012 1005.4 820.742 1000.16 811.292C994.924 801.841 992.306 790.792 992.306 778.143C992.306 765.493 994.851 754.444 999.942 744.993C1005.18 735.543 1012.45 728.273 1021.76 723.185C1031.07 718.096 1041.76 715.552 1053.83 715.552C1065.61 715.552 1076.08 718.023 1085.24 722.967C1094.4 727.91 1101.53 734.961 1106.62 744.121C1111.86 753.281 1114.47 763.967 1114.47 776.18ZM1076.3 766.366C1076.3 759.969 1074.12 754.88 1069.75 751.1C1065.39 747.32 1059.93 745.429 1053.39 745.429C1047.14 745.429 1041.83 747.247 1037.46 750.882C1033.25 754.516 1030.63 759.678 1029.61 766.366H1076.3Z" fill="#F9F9F9"/>
<path d="M1175.82 737.578C1180.19 730.89 1185.64 725.656 1192.18 721.876C1198.73 717.95 1206 715.988 1214 715.988V755.461H1203.75C1194.44 755.461 1187.46 757.497 1182.8 761.568C1178.15 765.493 1175.82 772.472 1175.82 782.504V838.989H1138.52V717.296H1175.82V737.578Z" fill="#F9F9F9"/>
</svg>
